<svg xmlns="http://www.w3.org/2000/svg" viewBox="0 0 710 260" role="img" aria-labelledby="title"><title id="title">双孔夫琅禾费衍射的三个原题选项示意</title><defs><marker id="arrow" viewBox="0 0 6 6" refX="5" refY="3" markerWidth="6" markerHeight="6" orient="auto-start-reverse"><path d="M0 0L6 3L0 6" fill="none" stroke="#302d27" stroke-width=".9"/></marker><pattern id="hatch" width="8" height="8" patternUnits="userSpaceOnUse"><path d="M-2 8L8-2M6 10L10 6" stroke="#302d27" stroke-width=".7" opacity=".45"/></pattern></defs><style>path,line,rect,circle,ellipse{fill:none;stroke:#302d27;stroke-width:1.15;vector-effect:non-scaling-stroke;stroke-linejoin:round}text{fill:#302d27;stroke:none;font:16px 'Microsoft YaHei','Segoe UI',sans-serif}.small{font-size:13px}</style><defs><clipPath id="discA"><circle cx="125" cy="125" r="66"/></clipPath><clipPath id="discB"><circle cx="355" cy="125" r="66"/></clipPath></defs><circle cx="125" cy="125" r="66" opacity=".65"/><circle cx="125" cy="125" r="52" opacity=".65"/><circle cx="125" cy="125" r="42" opacity=".65"/><text x="125" y="233" text-anchor="middle">A</text><circle cx="355" cy="125" r="66" opacity=".65"/><circle cx="355" cy="125" r="52" opacity=".65"/><circle cx="355" cy="125" r="42" opacity=".65"/><text x="355" y="233" text-anchor="middle">B</text><g clip-path="url(#discA)"><path d="M62 50L62 200"/></g><g clip-path="url(#discB)"><path d="M280 62L430 62"/></g><g clip-path="url(#discA)"><path d="M77 50L77 200"/></g><g clip-path="url(#discB)"><path d="M280 77L430 77"/></g><g clip-path="url(#discA)"><path d="M92 50L92 200"/></g><g clip-path="url(#discB)"><path d="M280 92L430 92"/></g><g clip-path="url(#discA)"><path d="M107 50L107 200"/></g><g clip-path="url(#discB)"><path d="M280 107L430 107"/></g><g clip-path="url(#discA)"><path d="M122 50L122 200"/></g><g clip-path="url(#discB)"><path d="M280 122L430 122"/></g><g clip-path="url(#discA)"><path d="M137 50L137 200"/></g><g clip-path="url(#discB)"><path d="M280 137L430 137"/></g><g clip-path="url(#discA)"><path d="M152 50L152 200"/></g><g clip-path="url(#discB)"><path d="M280 152L430 152"/></g><g clip-path="url(#discA)"><path d="M167 50L167 200"/></g><g clip-path="url(#discB)"><path d="M280 167L430 167"/></g><g clip-path="url(#discA)"><path d="M182 50L182 200"/></g><g clip-path="url(#discB)"><path d="M280 182L430 182"/></g><circle cx="563" cy="125" r="30"/><circle cx="563" cy="125" r="22"/><circle cx="563" cy="125" r="15"/><circle cx="638" cy="125" r="30"/><circle cx="638" cy="125" r="22"/><circle cx="638" cy="125" r="15"/><text x="600" y="233" text-anchor="middle">C</text></svg>